<svg width="40" height="40" viewBox="0 0 40 40" fill="none" xmlns="http://www.w3.org/2000/svg">
<path fill-rule="evenodd" clip-rule="evenodd" d="M28.5428 20.9072C26.3155 21.809 23.9112 22.3652 21.3965 22.5094C20.9629 22.5342 20.5259 22.5468 20.086 22.5468C19.6461 22.5468 19.2091 22.5342 18.7754 22.5094C16.2602 22.3652 13.8554 21.8087 11.6276 20.9065C6.95238 19.0132 3.05668 15.5971 0.555542 11.2734C4.45399 4.53415 11.7405 0 20.086 0C28.4315 0 35.718 4.53415 39.6164 11.2734C37.115 15.5976 33.2187 19.0139 28.5428 20.9072Z" fill="white"/>
<path d="M11.6273 22.6616C11.0887 22.4434 10.5604 22.2051 10.0435 21.9475C8.36337 23.131 6.94307 24.6051 5.8736 26.2868C7.69142 29.1454 10.5228 31.4038 13.9208 32.6556C15.5399 33.2521 17.2878 33.62 19.1158 33.7153H21.0209C22.8485 33.62 26.0609 35.4306 21.3962 39.9999C24.7947 38.7483 32.4451 29.1457 34.2631 26.2868C33.1967 24.6099 31.7814 23.1394 30.1076 21.9576C29.5966 22.2116 29.0746 22.4468 28.5425 22.6622C26.3152 23.564 23.9109 24.1203 21.3962 24.2644C20.9626 24.2892 20.5256 24.3018 20.0857 24.3018C19.6458 24.3018 19.2088 24.2892 18.7751 24.2644C16.2599 24.1202 13.8551 23.5638 11.6273 22.6616Z" fill="white"/>
<rect x="10.6683" y="8.38965" width="18.8764" height="6.74157" rx="3.37078" fill="#162550"/>
<ellipse cx="25.312" cy="11.723" rx="1.23596" ry="1.23595" fill="#04FED1"/>
<circle cx="20.0683" cy="28.3519" r="1.23596" fill="#162550"/>
<ellipse cx="15.1253" cy="11.723" rx="1.23596" ry="1.23595" fill="#04FED1"/>
<ellipse cx="15.1253" cy="28.3519" rx="1.23596" ry="1.23596" fill="#162550"/>
<circle cx="25.0128" cy="28.3519" r="1.23596" fill="#162550"/>
</svg>
